<svg xmlns="http://www.w3.org/2000/svg" viewBox="0 0 128 128"><defs><style>.cls-1{isolation:isolate;}.cls-2{mix-blend-mode:multiply;}.cls-3{fill:#9b6f43;}.cls-4{fill:#b78d5c;}.cls-5{fill:#5b361d;}</style></defs><title>monkey</title><g class="cls-1"><g id="icons" class="cls-2"><path class="cls-3" d="M63.16,37.07a1.27,1.27,0,0,0,1.69,0C74,29,86.45,35,91.46,45.51a28,28,0,0,0-54.91,0C41.55,35,54,29,63.16,37.07Z"/><path class="cls-4" d="M36.43,55.87a4,4,0,0,1-.91,3.29A25.67,25.67,0,0,0,29,76c0,16,15.67,29,35,29S99,92,99,76a25.67,25.67,0,0,0-6.52-16.85,4,4,0,0,1-.91-3.29,28.23,28.23,0,0,0-.07-10.11c0-.08,0-.16-.05-.24C86.45,35,74,29,64.84,37.07a1.27,1.27,0,0,1-1.69,0C54,29,41.55,35,36.55,45.5a27.92,27.92,0,0,0-.12,10.36Z"/><circle cx="75" cy="57" r="4"/><circle cx="53" cy="57" r="4"/><circle class="cls-3" cx="60" cy="67" r="2"/><circle class="cls-3" cx="68" cy="67" r="2"/><path class="cls-5" d="M86.61,78.79a28.1,28.1,0,0,1-5,3.53,34.87,34.87,0,0,1-5.55,2.53,35,35,0,0,1-24.14,0,34.87,34.87,0,0,1-5.55-2.53,28.1,28.1,0,0,1-5-3.53,1,1,0,0,1,1.16-1.62l.07,0a43.8,43.8,0,0,0,5.08,2.43A44.56,44.56,0,0,0,53,81.46a40.25,40.25,0,0,0,5.46,1.13,37.91,37.91,0,0,0,11.05,0A40.25,40.25,0,0,0,75,81.46a44.56,44.56,0,0,0,5.32-1.82,43.8,43.8,0,0,0,5.08-2.43l.06,0a1,1,0,0,1,1.16,1.62Z"/><path class="cls-5" d="M36,40a12,12,0,0,1,2.18.19,27.86,27.86,0,0,0-1.75,15.68,4,4,0,0,1-.91,3.28,27.88,27.88,0,0,0-4,6.05A13,13,0,0,1,36,40Z"/><path class="cls-5" d="M105,53a13,13,0,0,1-8.51,12.2,27.88,27.88,0,0,0-4-6.05,4,4,0,0,1-.9-3.29,28.42,28.42,0,0,0-.07-10.11c0-.08,0-.16,0-.24a27.41,27.41,0,0,0-1.62-5.33A12.76,12.76,0,0,1,92,40,13,13,0,0,1,105,53Z"/></g></g></svg>